<?xml version="1.0" standalone="no"?>
<!DOCTYPE svg PUBLIC "-//W3C//DTD SVG 1.1//EN"
  "http://www.w3.org/Graphics/SVG/1.1/DTD/svg11.dtd">
<svg version="1.1" xmlns="http://www.w3.org/2000/svg" xmlns:xlink="http://www.w3.org/1999/xlink" width="1792" height="1063" viewBox="-992 -32 1792 1063" id="ccdiagram"><filter id="grayscale"><feColorMatrix type="saturate" values="0"></feColorMatrix></filter><filter id="highlight"><feColorMatrix type="matrix" color-interpolation-filters="sRGB" values="0.20338 0 0 0 0
                0 0.58474 0 0 0
                0 0 0.97033 0 0
                0 0 0 1 0"></feColorMatrix></filter><defs><style type="text/css">@import url('https://fonts.googleapis.com/css2?family=Noto+Sans:ital,wght@0,100..900;1,100..900&amp;family=Roboto+Mono:ital,wght@0,100..700;1,100..700&amp;display=swap');</style></defs><g><rect x="-992" y="-32" width="1792" height="1063" fill="none" id="interactionLayer"></rect><g style="pointer-events: none;"><g><pattern id="gridPatternMinor" x="0" y="37" width="128" height="74" patternUnits="userSpaceOnUse"><path d="M 0 0 L 128 74" stroke="#eeeeee" stroke-width="1"></path><path d="M 128 0 L 0 74" stroke="#eeeeee" stroke-width="1"></path></pattern><polygon points="0 0, 768 444, -192 999, -960 555" fill="url(#gridPatternMinor)"></polygon></g><polygon points="-960 555, -960 565, -192 1009, -192 999" stroke="#54626f" fill="#f9f9f9" stroke-linejoin="round" stroke-width="1"></polygon><polygon points="-192 1009, 768 454, 768 444, -192 999" stroke="#54626f" fill="#e2e2e2" stroke-linejoin="round" stroke-width="1"></polygon></g><g pointer-events="auto"></g><g style="pointer-events: none;"><g><pattern id="gridPatternMajor" x="0" y="37" width="128" height="74" patternUnits="userSpaceOnUse"><path d="M 64 0 L 128 37 64 74 0 37 z" stroke="#54626f" stroke-width="1" fill="none"></path></pattern><polygon points="0 0, 768 444, -192 999, -960 555" fill="url(#gridPatternMajor)"></polygon></g></g><g pointer-events="auto"></g><g pointer-events="auto"></g><g pointer-events="auto"></g><g pointer-events="auto"></g><g pointer-events="auto"></g><g pointer-events="auto"></g><g pointer-events="auto"></g><g pointer-events="none"></g><g pointer-events="auto"><g id="28edba1f-2b17-4001-aa9e-99f1c9728a1b-f288b243-3b43-44ca-b103-3d835b6aede3"><g cursor="cell"><line x1="-160" y1="537" x2="51" y2="519" stroke="red" stroke-width="8" opacity="0"></line><line x1="-160" y1="537" x2="51" y2="519" stroke="#000000" stroke-width="2" stroke-linecap="round"></line><polygon points="64 518, 38 513, 47 519, 41 527, 64 518" stroke-linejoin="round" fill="#000000" stroke="#000000" stroke-width="1"></polygon></g></g><g id="bb0298df-8d91-4829-b5bd-4c7468fa5e9b-28edba1f-2b17-4001-aa9e-99f1c9728a1b"><g cursor="cell"><line x1="-391" y1="403" x2="-266" y2="475" stroke="red" stroke-width="8" opacity="0"></line><line x1="-391" y1="403" x2="-266" y2="475" stroke="#000000" stroke-width="2" stroke-linecap="round"></line><polygon points="-256 481, -265 466, -268 474, -282 476, -256 481" stroke-linejoin="round" fill="#000000" stroke="#000000" stroke-width="1"></polygon></g></g><g id="28edba1f-2b17-4001-aa9e-99f1c9728a1b-dbe34925-929b-4f10-befb-074dc5e9a9a7"><g cursor="cell"><line x1="-160" y1="537" x2="-190" y2="658" stroke="red" stroke-width="8" opacity="0"></line><line x1="-160" y1="537" x2="-190" y2="658" stroke="#000000" stroke-width="2" stroke-linecap="round"></line><polygon points="-192 666, -177 653, -190 656, -200 651, -192 666" stroke-linejoin="round" fill="#000000" stroke="#000000" stroke-width="1"></polygon></g></g></g><g pointer-events="auto"><g><g class="cloud-maps_raptor_node" id="f288b243-3b43-44ca-b103-3d835b6aede3"><svg x="64" y="481" width="128" height="111" fill-rule="evenodd" stroke-linejoin="round" stroke-miterlimit="1.414"><path fill="#b8b8bb" d="M64 74v37l64-37V37L64 74Z"></path><path fill="#d2d2d4" d="M0 37v37l64 37V74L0 37Z"></path><path fill="#ececed" d="M0 37 64 0l64 37-64 37L0 37Z"></path><path fill="#83838a" d="m64 73.407 62.111-35.86.514.889-62.487 36.078h-.276L.743 38.072l.514-.89L64 73.407Z"></path><path fill="#83838a" d="M63.486 74h1.027v36h-1.027z"></path><path fill="#000000" d="M128 37v37l-64 37L0 74V37L64 0l64 37ZM2.054 38.185v34.63L64 108.627l61.946-35.812v-34.63L64 2.373 2.054 38.185Z"></path></svg></g></g><g><g class="cloud-maps_raptor_node" id="28edba1f-2b17-4001-aa9e-99f1c9728a1b"><svg x="-256" y="444" width="128" height="111" fill-rule="evenodd" stroke-linejoin="round" stroke-miterlimit="1.414"><path fill="#b8b8bb" d="M64 74v37l64-37V37L64 74Z"></path><path fill="#d2d2d4" d="M0 37v37l64 37V74L0 37Z"></path><path fill="#ececed" d="M0 37 64 0l64 37-64 37L0 37Z"></path><path fill="#83838a" d="m64 73.407 62.111-35.86.514.889-62.487 36.078h-.276L.743 38.072l.514-.89L64 73.407Z"></path><path fill="#83838a" d="M63.486 74h1.027v36h-1.027z"></path><path fill="#000000" d="M128 37v37l-64 37L0 74V37L64 0l64 37ZM2.054 38.185v34.63L64 108.627l61.946-35.812v-34.63L64 2.373 2.054 38.185Z"></path></svg></g></g><g><g class="cloud-maps_raptor_node" id="dbe34925-929b-4f10-befb-074dc5e9a9a7"><svg x="-192" y="629" width="128" height="111" fill-rule="evenodd" stroke-linejoin="round" stroke-miterlimit="1.414"><path fill="#b8b8bb" d="M64 74v37l64-37V37L64 74Z"></path><path fill="#d2d2d4" d="M0 37v37l64 37V74L0 37Z"></path><path fill="#ececed" d="M0 37 64 0l64 37-64 37L0 37Z"></path><path fill="#83838a" d="m64 73.407 62.111-35.86.514.889-62.487 36.078h-.276L.743 38.072l.514-.89L64 73.407Z"></path><path fill="#83838a" d="M63.486 74h1.027v36h-1.027z"></path><path fill="#000000" d="M128 37v37l-64 37L0 74V37L64 0l64 37ZM2.054 38.185v34.63L64 108.627l61.946-35.812v-34.63L64 2.373 2.054 38.185Z"></path></svg></g></g></g><g pointer-events="auto"></g><g pointer-events="auto"><g><g class="cloud-maps_raptor_node" id="bb0298df-8d91-4829-b5bd-4c7468fa5e9b"><svg x="-448" y="370" overflow="visible"><g transform="scale(4.606158095740839) matrix(0.707 0.409 -0.707 0.409 0 0)"><circle cx="0" cy="0" fill="transparent" r="17.5"></circle><svg width="35" height="35" x="-17.5" y="-17.5" style="fill: rgb(255, 255, 255);"><svg xmlns="http://www.w3.org/2000/svg" viewBox="0 0 35 35"><g><path d="M0 0h35v35H0z" style="fill:#232f3e"></path><path d="M25.54 25.76H9.92A4.87 4.87 0 0 1 5 21.26v-.39a4.56 4.56 0 0 1 3.27-4.6v-.41a6.87 6.87 0 0 1 3.9-6 6.54 6.54 0 0 1 7.39 1.46 7.42 7.42 0 0 1 1.51 2.24 2.91 2.91 0 0 1 2.65-.56 3.52 3.52 0 0 1 2.35 3.19A4.73 4.73 0 0 1 30 20.91c0 4.43-4.41 4.84-4.46 4.85ZM8.87 17.09A3.65 3.65 0 0 0 6 20.87v.33a3.91 3.91 0 0 0 4 3.58h15.59a3.91 3.91 0 0 0 0-7.79.47.47 0 0 1-.39-.54 2.69 2.69 0 0 0-1.69-2.59 2 2 0 0 0-2.17.78.48.48 0 0 1-.46.19.5.5 0 0 1-.38-.32A6.76 6.76 0 0 0 18.87 12a5.58 5.58 0 0 0-6.33-1.26 6 6 0 0 0-3.32 5.17 5.48 5.48 0 0 0 0 .7.48.48 0 0 1-.38.53Z" style="fill:#fff"></path></g></svg></svg></g></svg></g></g></g><g pointer-events="auto"><g><g class="cloud-maps_raptor_node" id="18153b89-f119-4a71-b28d-71e3ce3046db"><svg x="-240" y="361" overflow="visible"><text stroke="#ffffff" stroke-width="4" font-family="Noto Sans" y="36.5" font-size="25pt" fill="#000000" font-weight="bold" transform="matrix(0.707 0.409 -0.707 0.409 0 0)" paint-order="stroke" xml:space="preserve"><tspan x="8" dy="0">productpage</tspan></text></svg></g></g><g><g class="cloud-maps_raptor_node" id="95f211aa-ee53-47ef-9790-2755ad589479"><svg x="72" y="560" overflow="visible"><text stroke="#ffffff" stroke-width="4" font-family="Noto Sans" y="36.5" font-size="25pt" fill="#000000" font-weight="bold" transform="matrix(0.707 0.409 -0.707 0.409 0 0)" paint-order="stroke" xml:space="preserve"><tspan x="8" dy="0">reviews</tspan></text></svg></g></g><g><g class="cloud-maps_raptor_node" id="5948e102-3b60-45fb-b894-a3664b790234"><svg x="-184" y="708" overflow="visible"><text stroke="#ffffff" stroke-width="4" font-family="Noto Sans" y="36.5" font-size="25pt" fill="#000000" font-weight="bold" transform="matrix(0.707 0.409 -0.707 0.409 0 0)" paint-order="stroke" xml:space="preserve"><tspan x="8" dy="0">details</tspan></text></svg></g></g></g></g></svg>